<svg width="1200" height="800" viewBox="0 0 1200 800" fill="none" xmlns="http://www.w3.org/2000/svg">
  <defs>
    <linearGradient id="bg3" x1="0" y1="0" x2="1200" y2="800" gradientUnits="userSpaceOnUse">
      <stop stop-color="#111827"/>
      <stop offset="1" stop-color="#1D3557"/>
    </linearGradient>
  </defs>
  <rect width="1200" height="800" fill="url(#bg3)"/>
  <circle cx="1010" cy="130" r="200" fill="#4C6DA9" fill-opacity="0.25"/>
  <circle cx="190" cy="700" r="220" fill="#2D9CDB" fill-opacity="0.2"/>
  <rect x="112" y="134" width="976" height="532" rx="40" fill="#0F2134" stroke="#3E5B87" stroke-width="2"/>
  <rect x="160" y="182" width="302" height="436" rx="24" fill="#112A41" stroke="#476996"/>
  <rect x="498" y="182" width="542" height="126" rx="20" fill="#122F48" stroke="#476996"/>
  <rect x="498" y="334" width="542" height="126" rx="20" fill="#122F48" stroke="#476996"/>
  <rect x="498" y="486" width="542" height="132" rx="20" fill="#122F48" stroke="#476996"/>
  <rect x="194" y="224" width="234" height="18" rx="9" fill="#9FC4FF" fill-opacity="0.8"/>
  <rect x="194" y="264" width="180" height="14" rx="7" fill="#6F9AD5" fill-opacity="0.8"/>
  <rect x="194" y="364" width="232" height="18" rx="9" fill="#9FC4FF" fill-opacity="0.8"/>
  <rect x="194" y="404" width="174" height="14" rx="7" fill="#6F9AD5" fill-opacity="0.8"/>
  <rect x="194" y="504" width="232" height="18" rx="9" fill="#9FC4FF" fill-opacity="0.8"/>
  <rect x="194" y="544" width="174" height="14" rx="7" fill="#6F9AD5" fill-opacity="0.8"/>
  <circle cx="938" cy="246" r="18" fill="#2DD4BF"/>
  <circle cx="938" cy="398" r="18" fill="#FBBF24"/>
  <circle cx="938" cy="550" r="18" fill="#FB7185"/>
</svg>
